<svg width="89" height="88" viewBox="0 0 89 88" fill="none" xmlns="http://www.w3.org/2000/svg">
<circle cx="45" cy="44" r="35" fill="#007BFF" stroke="white" stroke-width="6"/>
<path d="M57 45.996H47V55.996C47 56.5264 46.7893 57.0351 46.4142 57.4102C46.0391 57.7853 45.5304 57.996 45 57.996C44.4696 57.996 43.9609 57.7853 43.5858 57.4102C43.2107 57.0351 43 56.5264 43 55.996V45.996H33C32.4696 45.996 31.9609 45.7853 31.5858 45.4102C31.2107 45.0351 31 44.5264 31 43.996C31 43.4655 31.2107 42.9568 31.5858 42.5818C31.9609 42.2067 32.4696 41.996 33 41.996H43V31.996C43 31.4655 43.2107 30.9568 43.5858 30.5818C43.9609 30.2067 44.4696 29.996 45 29.996C45.5304 29.996 46.0391 30.2067 46.4142 30.5818C46.7893 30.9568 47 31.4655 47 31.996V41.996H57C57.5304 41.996 58.0391 42.2067 58.4142 42.5818C58.7893 42.9568 59 43.4655 59 43.996C59 44.5264 58.7893 45.0351 58.4142 45.4102C58.0391 45.7853 57.5304 45.996 57 45.996Z" fill="white"/>
</svg>
