<svg width="159" height="48" viewBox="0 0 159 48" fill="none" xmlns="http://www.w3.org/2000/svg">
<rect width="159" height="48" rx="12" fill="#B3D8FF"/>
<path d="M25 24H39M32 17V31" stroke="#0E0921" stroke-width="2" stroke-linecap="round" stroke-linejoin="round"/>
<path d="M62.6006 19.5625H54.7178V18.1484H62.6006V19.5625ZM54.3584 26.125C56.0147 26.125 57.572 26.099 59.0303 26.0469C60.4886 25.9948 61.8506 25.8906 63.1162 25.7344L63.1944 26.9922C61.9027 27.2109 60.5537 27.3568 59.1475 27.4297C57.7412 27.5026 56.21 27.5443 54.5537 27.5547L54.3584 26.125ZM57.7412 26.5078H56.0616V19.2422H57.7412V26.5078ZM61.2412 26.5078H59.5694V19.2422H61.2412V26.5078ZM65.6006 30.875H63.8662V16.7656H65.6006V30.875ZM67.7803 23.6641H65.21V22.2422H67.7803V23.6641ZM72.0541 17.2188C72.7624 17.2188 73.4004 17.3568 73.9681 17.6328C74.5358 17.9036 74.9785 18.2812 75.2962 18.7656C75.6192 19.25 75.7806 19.7969 75.7806 20.4062C75.7806 21.0156 75.6192 21.5625 75.2962 22.0469C74.9785 22.5312 74.5358 22.9115 73.9681 23.1875C73.4004 23.4583 72.7624 23.5938 72.0541 23.5938C71.3405 23.5938 70.6973 23.4583 70.1244 23.1875C69.5567 22.9115 69.1114 22.5312 68.7884 22.0469C68.4655 21.5625 68.3041 21.0156 68.3041 20.4062C68.3041 19.7969 68.4655 19.25 68.7884 18.7656C69.1114 18.2812 69.5567 17.9036 70.1244 17.6328C70.6973 17.3568 71.3405 17.2188 72.0541 17.2188ZM72.0541 18.6484C71.6582 18.6484 71.3041 18.7214 70.9916 18.8672C70.6791 19.0078 70.4343 19.2135 70.2572 19.4844C70.0853 19.75 69.9994 20.0573 69.9994 20.4062C69.9994 20.7604 70.0853 21.0729 70.2572 21.3438C70.4343 21.6146 70.6791 21.8229 70.9916 21.9688C71.3041 22.1094 71.6582 22.1823 72.0541 22.1875C72.4499 22.1823 72.8015 22.1094 73.1087 21.9688C73.4212 21.8229 73.666 21.6146 73.8431 21.3438C74.0202 21.0729 74.1087 20.7604 74.1087 20.4062C74.1087 20.0573 74.0202 19.75 73.8431 19.4844C73.666 19.2135 73.4212 19.0078 73.1087 18.8672C72.8015 18.7214 72.4499 18.6484 72.0541 18.6484ZM79.8041 23.9062H78.0619V16.7656H79.8041V23.9062ZM79.8041 28.2109H72.1634V30.0703H70.4681V26.9297H78.0697V25.875H70.4369V24.5156H79.8041V28.2109ZM80.2259 30.7109H70.4681V29.3438H80.2259V30.7109ZM95.7422 21.3047H92.3281V19.8828H95.7422V21.3047ZM89.8359 19.25C89.8359 20.1979 89.6849 21.0807 89.3828 21.8984C89.0807 22.7109 88.638 23.4219 88.0547 24.0312C87.4714 24.6354 86.7604 25.0964 85.9219 25.4141L84.9922 24.0312C85.7318 23.776 86.3594 23.4062 86.875 22.9219C87.3906 22.4323 87.7786 21.8724 88.0391 21.2422C88.3047 20.612 88.4375 19.9479 88.4375 19.25V17.6406H89.8359V19.25ZM90.1797 19.2734C90.1797 19.9089 90.3047 20.5182 90.5547 21.1016C90.8099 21.6849 91.1875 22.2057 91.6875 22.6641C92.1875 23.1224 92.7891 23.4766 93.4922 23.7266L92.5391 25.0703C91.7474 24.7682 91.0703 24.3307 90.5078 23.7578C89.9505 23.1797 89.526 22.5078 89.2344 21.7422C88.9427 20.9766 88.7969 20.1536 88.7969 19.2734V17.6406H90.1797V19.2734ZM96.875 27.2578H95.1406V16.7812H96.875V27.2578ZM97.1797 30.625H87.5625V29.2031H97.1797V30.625ZM89.3281 29.9375H87.5625V26.125H89.3281V29.9375ZM100.032 23.3359C101.193 23.3307 102.138 23.3047 102.868 23.2578C103.597 23.2109 104.328 23.1224 105.063 22.9922L105.235 24.3984C104.448 24.5391 103.677 24.6354 102.922 24.6875C102.172 24.7344 101.209 24.7578 100.032 24.7578H99.0941V23.3359H100.032ZM104.641 19.1484H100.758V24.1094H99.0941V17.7344H104.641V19.1484ZM104.493 21.8438H100.25V20.5156H104.493V21.8438ZM110.633 25.375H108.977V16.7812H110.633V25.375ZM109.461 21.7031H107.039V20.3125H109.461V21.7031ZM107.5 25.2812H105.891V17.0391H107.5V25.2812ZM110.633 30.875H108.914V27.4062H100.961V26.0078H110.633V30.875ZM123.126 30.875H121.407V16.7656H123.126V30.875ZM125.305 23.8281H122.735V22.3984H125.305V23.8281ZM120.313 20.3281H111.993V18.9297H120.313V20.3281ZM116.196 21.2422C116.878 21.2422 117.488 21.3854 118.024 21.6719C118.566 21.9531 118.99 22.3464 119.298 22.8516C119.605 23.3568 119.758 23.9297 119.758 24.5703C119.758 25.2057 119.605 25.7786 119.298 26.2891C118.99 26.7943 118.566 27.1875 118.024 27.4688C117.488 27.75 116.878 27.8906 116.196 27.8906C115.519 27.8906 114.909 27.75 114.368 27.4688C113.826 27.1875 113.402 26.7943 113.094 26.2891C112.792 25.7786 112.641 25.2057 112.641 24.5703C112.641 23.9297 112.792 23.3568 113.094 22.8516C113.402 22.3464 113.826 21.9531 114.368 21.6719C114.909 21.3854 115.519 21.2422 116.196 21.2422ZM116.196 22.6719C115.837 22.6719 115.511 22.75 115.219 22.9062C114.933 23.0625 114.706 23.2839 114.54 23.5703C114.378 23.8568 114.298 24.1901 114.298 24.5703C114.298 24.9453 114.378 25.276 114.54 25.5625C114.706 25.849 114.933 26.0703 115.219 26.2266C115.511 26.3776 115.837 26.4531 116.196 26.4531C116.566 26.4531 116.894 26.3776 117.18 26.2266C117.467 26.0703 117.691 25.849 117.852 25.5625C118.014 25.276 118.094 24.9453 118.094 24.5703C118.094 24.1901 118.014 23.8568 117.852 23.5703C117.691 23.2839 117.467 23.0625 117.18 22.9062C116.894 22.75 116.566 22.6719 116.196 22.6719ZM117.055 19.4922H115.329V16.9688H117.055V19.4922ZM137.368 30.875H135.61V16.7656H137.368V30.875ZM133.157 18.2656C133.157 19.7396 132.944 21.0911 132.517 22.3203C132.095 23.5443 131.399 24.6719 130.431 25.7031C129.462 26.7292 128.178 27.6224 126.579 28.3828L125.657 26.9922C127.017 26.3464 128.121 25.612 128.97 24.7891C129.819 23.9661 130.441 23.0417 130.837 22.0156C131.233 20.9896 131.431 19.8385 131.431 18.5625V18.2656H133.157ZM132.212 19.6406H126.376V18.2656H132.212V19.6406Z" fill="#070018"/>
</svg>
