<svg width="25" height="45" viewBox="0 0 25 45" fill="none" xmlns="http://www.w3.org/2000/svg">
<path d="M8.85415 9H2.08331V21H8.85415V9Z" stroke="black" stroke-width="2" stroke-linecap="round" stroke-linejoin="round"/>
<path d="M15.625 3H8.85413V21H15.625V3Z" stroke="black" stroke-width="2" stroke-linejoin="round"/>
<path d="M22.3958 13H15.625V21H22.3958V13Z" stroke="black" stroke-width="2" stroke-linecap="round" stroke-linejoin="round"/>
<path d="M11.3789 29.8711V37.4316H9.92969V34.2051H8.64453V37.0215H7.22266V30.1035H8.64453V32.9746H9.92969V29.8711H11.3789ZM6.01953 30.7324V34.2734H2.80664V35.5723C4.24219 35.5586 5.33594 35.4971 6.59375 35.2578L6.73047 36.4746C5.24023 36.748 3.98242 36.7891 2.17773 36.7891H1.33008V33.1523H4.55664V31.9355H1.31641V30.7324H6.01953ZM7.20898 37.5957C9.79297 37.6094 11.4336 38.457 11.4473 39.8926C11.4336 41.3281 9.79297 42.2031 7.20898 42.2031C4.59766 42.2031 2.9707 41.3281 2.9707 39.8926C2.9707 38.457 4.59766 37.6094 7.20898 37.5957ZM7.20898 38.7715C5.5 38.7715 4.48828 39.168 4.48828 39.8926C4.48828 40.6445 5.5 41.0273 7.20898 41.0273C8.9043 41.0273 9.91602 40.6445 9.91602 39.8926C9.91602 39.168 8.9043 38.7715 7.20898 38.7715ZM19.5547 30.6367C19.541 33.9727 17.8457 36.2422 13.7441 37.4316L13.1836 36.2148C15.0771 35.6953 16.3076 34.957 17.0391 34.041L13.3613 34.3145L13.1289 33.1113L17.668 32.9336C17.7979 32.5986 17.8799 32.2363 17.9277 31.8535H13.7578V30.6367H19.5547ZM23.2051 29.8711V37.1992H21.6738V29.8711H23.2051ZM19.0488 37.377C21.6191 37.377 23.2461 38.2656 23.2461 39.7969C23.2461 41.3281 21.6191 42.1895 19.0488 42.1895C16.4238 42.1895 14.7969 41.3281 14.7969 39.7969C14.7969 38.2656 16.4238 37.377 19.0488 37.377ZM19.0488 38.5801C17.2852 38.5801 16.3281 39.0039 16.3281 39.7969C16.3281 40.5762 17.2852 41.0137 19.0488 41.0137C20.7441 41.0137 21.7285 40.5762 21.7285 39.7969C21.7285 39.0039 20.7441 38.5801 19.0488 38.5801Z" fill="black"/>
</svg>
