<svg width="56" height="40" viewBox="0 0 56 40" fill="none" xmlns="http://www.w3.org/2000/svg">
<path d="M1.5 6.89H17.37V11.54H7.5V27.62C8.58 27.62 9.6 27.61 10.56 27.59C11.52 27.55 12.44 27.5 13.32 27.44C14.2 27.36 15.05 27.27 15.87 27.17C16.71 27.05 17.56 26.9 18.42 26.72V32.27H1.5V6.89ZM19.5 6.89H25.5V15.86H28.2V20.96H25.5V32.27H19.5V6.89ZM29.3906 6.89H54.2906V10.49C52.8706 10.71 51.3806 10.87 49.8206 10.97C48.2606 11.05 46.4706 11.09 44.4506 11.09H35.3906V11.93H44.4506C46.4706 11.93 48.2606 11.89 49.8206 11.81C51.3806 11.71 52.8706 11.55 54.2906 11.33V16.13H29.3906V6.89ZM29.3906 17.06H54.2906V21.71H29.3906V17.06ZM54.2906 22.7V32.27H29.3906V22.7H54.2906ZM41.8406 31.97C41.8406 30.47 42.7806 29.36 44.6606 28.64C46.5606 27.9 49.4006 27.51 53.1806 27.47C49.4006 27.43 46.5606 27.05 44.6606 26.33C42.7806 25.61 41.8406 24.5 41.8406 23C41.8406 24.5 40.8906 25.61 38.9906 26.33C37.0906 27.05 34.2506 27.43 30.4706 27.47C34.2506 27.51 37.0906 27.9 38.9906 28.64C40.8906 29.36 41.8406 30.47 41.8406 31.97Z" fill="#097EFD"/>
<mask id="mask0_54_586" style="mask-type:alpha" maskUnits="userSpaceOnUse" x="1" y="6" width="54" height="27">
<path d="M1.5 6.89H17.37V11.54H7.5V27.62C8.58 27.62 9.6 27.61 10.56 27.59C11.52 27.55 12.44 27.5 13.32 27.44C14.2 27.36 15.05 27.27 15.87 27.17C16.71 27.05 17.56 26.9 18.42 26.72V32.27H1.5V6.89ZM19.5 6.89H25.5V15.86H28.2V20.96H25.5V32.27H19.5V6.89ZM29.3906 6.89H54.2906V10.49C52.8706 10.71 51.3806 10.87 49.8206 10.97C48.2606 11.05 46.4706 11.09 44.4506 11.09H35.3906V11.93H44.4506C46.4706 11.93 48.2606 11.89 49.8206 11.81C51.3806 11.71 52.8706 11.55 54.2906 11.33V16.13H29.3906V6.89ZM29.3906 17.06H54.2906V21.71H29.3906V17.06ZM54.2906 22.7V32.27H29.3906V22.7H54.2906ZM41.8406 31.97C41.8406 30.47 42.7806 29.36 44.6606 28.64C46.5606 27.9 49.4006 27.51 53.1806 27.47C49.4006 27.43 46.5606 27.05 44.6606 26.33C42.7806 25.61 41.8406 24.5 41.8406 23C41.8406 24.5 40.8906 25.61 38.9906 26.33C37.0906 27.05 34.2506 27.43 30.4706 27.47C34.2506 27.51 37.0906 27.9 38.9906 28.64C40.8906 29.36 41.8406 30.47 41.8406 31.97Z" fill="#097EFD"/>
</mask>
<g mask="url(#mask0_54_586)">
<circle cx="17.5" cy="39.5" r="22.5" fill="#B3D8FF"/>
</g>
</svg>
