<svg width="58" height="43" viewBox="0 0 58 43" fill="none" xmlns="http://www.w3.org/2000/svg">
<path d="M22.62 31.16H5.73L5.79 16.43V15.32H17.88V17.27H7.89L7.83 29.21H22.62V13.61H20.67V11.66H24.72V22.31H29.34V24.26H24.72V38.27H22.62V31.16ZM52.3617 21.92H34.9617V13.22H52.3617V15.08H36.9717V20.06H52.3617V21.92ZM55.6617 26.51H31.3317V24.56H55.6617V26.51ZM52.6317 38.39H34.3917V29.75H52.6317V38.39ZM36.4917 31.7V36.44H50.5317V31.7H36.4917Z" fill="#B3D8FF"/>
<path d="M19.62 31.16H2.73L2.79 16.43V15.32H14.88V17.27H4.89L4.83 29.21H19.62V13.61H17.67V11.66H21.72V22.31H26.34V24.26H21.72V38.27H19.62V31.16ZM49.3617 21.92H31.9617V13.22H49.3617V15.08H33.9717V20.06H49.3617V21.92ZM52.6617 26.51H28.3317V24.56H52.6617V26.51ZM49.6317 38.39H31.3917V29.75H49.6317V38.39ZM33.4917 31.7V36.44H47.5317V31.7H33.4917Z" fill="#097EFD"/>
</svg>
