<svg width="315" height="59" viewBox="0 0 315 59" fill="none" xmlns="http://www.w3.org/2000/svg">
<path d="M20.5371 29V7.78906H28.5059C33.3691 7.78906 35.9766 10.748 35.9766 14.8203C35.9766 18.8926 33.3398 21.8223 28.4473 21.8223H24.3457V29H20.5371ZM24.3457 18.6875H27.9199C30.791 18.6875 32.0801 17.0762 32.0801 14.8203C32.0801 12.5352 30.791 10.9824 27.9199 10.9824H24.3457V18.6875ZM46.2598 29H39.0527V7.78906H46.377C52.7051 7.78906 56.543 11.7734 56.543 18.3652C56.543 24.9863 52.7051 29 46.2598 29ZM42.8613 25.6895H46.0547C50.4785 25.6895 52.7344 23.2578 52.7344 18.3652C52.7344 13.502 50.4785 11.0996 46.1719 11.0996H42.8613V25.6895ZM59.9121 29V7.78906H73.5059V10.9824H63.7207V16.7832H72.5684V19.9766H63.7207V29H59.9121ZM99.8145 17.1348V19.5957H75.6152V17.1348H99.8145ZM96.8848 21.1777V27.2129H81.709V29.0586H97.6758V31.3145H78.457V25.1035H93.6621V23.4629H78.4277V21.1777H96.8848ZM96.8262 5.70898V11.6855H81.9141V13.4141H97.2949V15.6406H78.6914V9.57617H93.5742V7.96484H78.6035V5.70898H96.8262ZM116.045 6.29492C119.473 6.26562 122.168 8.24316 122.842 11.1582H127.617V5.12305H130.869V19.332H127.617V13.7949H122.871C122.212 16.7686 119.487 18.7754 116.045 18.7754C111.973 18.7754 109.043 16.168 109.043 12.5059C109.043 8.90234 111.973 6.26562 116.045 6.29492ZM116.045 9.01953C113.76 9.01953 112.148 10.3672 112.148 12.5059C112.148 14.6152 113.76 16.0215 116.045 16.0215C118.271 16.0215 119.854 14.6152 119.883 12.5059C119.854 10.3672 118.271 9.01953 116.045 9.01953ZM116.631 20.5625V23.375H127.617V20.5625H130.869V31.2852H113.408V20.5625H116.631ZM116.631 28.6484H127.617V25.8945H116.631V28.6484ZM158.818 25.8359V28.5312H134.619V25.8359H145.049V21.5293H137.49V12.8574H152.725V9.57617H137.432V6.93945H155.947V15.4355H140.742V18.8633H156.562V21.5293H148.271V25.8359H158.818ZM182.051 17.5449V20.1523H163.477V7.4375H181.846V10.0742H166.699V17.5449H182.051ZM184.746 25.543V28.2383H160.547V25.543H184.746ZM206.514 9.3418V11.9492H193.535V9.3418H198.457V5.88477H201.68V9.3418H206.514ZM200.068 13.3555C203.438 13.3555 205.84 15.9043 205.84 19.5078C205.84 23.1699 203.438 25.748 200.068 25.748C196.729 25.748 194.268 23.1699 194.297 19.5078C194.268 15.9043 196.729 13.3555 200.068 13.3555ZM200.068 16.0508C198.34 16.0508 197.139 17.4277 197.168 19.5078C197.139 21.6465 198.34 22.9941 200.068 22.9648C201.768 22.9941 202.969 21.6465 202.969 19.5078C202.969 17.4277 201.768 16.0508 200.068 16.0508ZM216.357 5.12305V31.6074H213.252V18.6582H210.674V30.4062H207.627V5.67969H210.674V16.0215H213.252V5.12305H216.357ZM243.662 19.8887V22.5254H233.145V31.5781H229.922V22.5254H219.521V19.8887H243.662ZM241.436 6.61719V9.19531H233.496C233.687 12.0957 237.173 14.8789 242.402 15.5527L241.23 18.1016C236.719 17.4717 233.203 15.4062 231.592 12.5352C229.98 15.4062 226.465 17.4717 222.012 18.1016L220.781 15.5527C225.981 14.8789 229.468 12.0957 229.717 9.19531H221.748V6.61719H241.436ZM253.711 12.0664C253.711 16.3438 255.205 20.7969 258.779 23.0527L256.992 25.543C254.604 24.1074 253.052 21.6318 252.188 18.7168C251.221 21.9248 249.521 24.6348 247.031 26.1582L245.01 23.7266C248.848 21.3828 250.576 16.7246 250.576 12.2129V7.4668H253.711V12.0664ZM268.301 5.12305V31.6074H265.166V5.12305H268.301ZM262.793 5.5918V30.3184H259.717V16.9297H255.938V14.2344H259.717V5.5918H262.793ZM295.576 25.7188V28.3848H271.377V25.7188H276.973V19.0098C274.863 17.8086 273.589 15.9189 273.604 13.5605C273.574 9.3418 277.734 6.55859 283.418 6.55859C289.131 6.55859 293.291 9.3418 293.291 13.5605C293.291 15.875 292.061 17.7354 290.01 18.9512V25.7188H295.576ZM283.418 9.13672C279.463 9.13672 276.768 10.8066 276.797 13.5605C276.768 16.2852 279.463 17.9844 283.418 17.9844C287.373 17.9844 290.098 16.2852 290.098 13.5605C290.098 10.8066 287.373 9.13672 283.418 9.13672ZM280.195 25.7188H286.699V20.1816C285.688 20.416 284.59 20.5332 283.418 20.5332C282.275 20.5332 281.191 20.416 280.195 20.2109V25.7188Z" fill="url(#paint0_linear_28_238)"/>
<path d="M45.0762 55.1367C43.2031 55.1367 41.7949 53.9883 41.7266 52.416H43.1895C43.2715 53.2637 44.0781 53.8789 45.0762 53.8789C46.2793 53.8789 47.1406 53.0039 47.1406 51.8281C47.1406 50.625 46.252 49.75 45.0078 49.7363C44.2148 49.7363 43.6133 49.9961 43.2715 50.6113H41.8496L42.4922 45.1016H48.0977V46.3867H43.7363L43.4082 49.1621H43.5039C43.9141 48.7656 44.6113 48.4922 45.3633 48.4922C47.2227 48.4922 48.6035 49.873 48.6035 51.7871C48.6035 53.7422 47.1406 55.1367 45.0762 55.1367ZM53.6484 55.1367C51.3516 55.1367 50.0117 53.291 50.0117 50.0508C50.0117 46.8379 51.3789 44.9648 53.6484 44.9648C55.918 44.9648 57.2852 46.8379 57.2852 50.0508C57.2852 53.291 55.9316 55.1367 53.6484 55.1367ZM53.6484 53.8379C54.9883 53.8379 55.7812 52.5254 55.7812 50.0508C55.7812 47.5898 54.9746 46.2363 53.6484 46.2363C52.3223 46.2363 51.5156 47.5898 51.5156 50.0508C51.5156 52.5254 52.3086 53.8379 53.6484 53.8379ZM58.9805 45.1016H60.8125L63.9434 52.7715H64.0664L67.1973 45.1016H69.0293V55H67.5938V47.8496H67.498L64.5996 54.9863H63.4102L60.498 47.8359H60.416V55H58.9805V45.1016ZM71.0527 55V45.1016H74.6758C76.7812 45.1016 77.8066 46.2363 77.8066 47.6992C77.8066 48.9297 77.0547 49.5586 76.1387 49.791V49.8867C77.123 49.9414 78.1895 50.8027 78.1895 52.334C78.1895 53.8516 77.1504 55 74.8398 55H71.0527ZM74.7031 53.7148C76.125 53.7148 76.6992 53.0859 76.6992 52.2656C76.6992 51.3223 75.9473 50.5566 74.7578 50.5566H72.5566V53.7148H74.7031ZM74.5527 49.3809C75.5508 49.3809 76.3301 48.7656 76.3301 47.8223C76.3301 47.002 75.7695 46.3867 74.5801 46.3867H72.5566V49.3809H74.5527ZM92.8047 43.9121V56.1895H91.5059V43.9121H92.8047ZM86.2559 44.8281C88.0742 44.8281 89.4141 46.4961 89.4141 49.1211C89.4141 51.7598 88.0742 53.4277 86.2559 53.4277C84.4102 53.4277 83.084 51.7598 83.084 49.1211C83.084 46.4961 84.4102 44.8281 86.2559 44.8281ZM86.2559 45.9902C85.1211 45.9902 84.3418 47.1934 84.3418 49.1211C84.3418 51.0625 85.1211 52.2656 86.2559 52.2656C87.377 52.2656 88.1562 51.0625 88.1562 49.1211C88.1562 47.1934 87.377 45.9902 86.2559 45.9902ZM104.303 43.9121V48.875H106.271V49.9551H104.303V56.1621H103.018V43.9121H104.303ZM101.951 45.8262V46.8926H94.6914V45.8262H97.7129V44.0762H99.0117V45.8262H101.951ZM98.3691 47.7949C100.119 47.7949 101.404 48.9707 101.418 50.6387C101.404 52.3203 100.119 53.4824 98.3691 53.4961C96.6055 53.4824 95.3203 52.3203 95.3203 50.6387C95.3203 48.9707 96.6055 47.7949 98.3691 47.7949ZM98.3691 48.8613C97.3301 48.8613 96.5508 49.5859 96.5645 50.6387C96.5508 51.7051 97.3301 52.416 98.3691 52.4023C99.4082 52.416 100.174 51.7051 100.174 50.6387C100.174 49.5859 99.4082 48.8613 98.3691 48.8613ZM109.061 54.0566L107.967 57.8301H106.805L107.529 54.0566H109.061ZM117.646 55.1367C115.773 55.1367 114.365 53.9883 114.297 52.416H115.76C115.842 53.2637 116.648 53.8789 117.646 53.8789C118.85 53.8789 119.711 53.0039 119.711 51.8281C119.711 50.625 118.822 49.75 117.578 49.7363C116.785 49.7363 116.184 49.9961 115.842 50.6113H114.42L115.062 45.1016H120.668V46.3867H116.307L115.979 49.1621H116.074C116.484 48.7656 117.182 48.4922 117.934 48.4922C119.793 48.4922 121.174 49.873 121.174 51.7871C121.174 53.7422 119.711 55.1367 117.646 55.1367ZM126.219 55.1367C123.922 55.1367 122.582 53.291 122.582 50.0508C122.582 46.8379 123.949 44.9648 126.219 44.9648C128.488 44.9648 129.855 46.8379 129.855 50.0508C129.855 53.291 128.502 55.1367 126.219 55.1367ZM126.219 53.8379C127.559 53.8379 128.352 52.5254 128.352 50.0508C128.352 47.5898 127.545 46.2363 126.219 46.2363C124.893 46.2363 124.086 47.5898 124.086 50.0508C124.086 52.5254 124.879 53.8379 126.219 53.8379ZM141.586 43.9121V56.1621H140.342V43.9121H141.586ZM139.166 44.1855V55.5332H137.936V49.668H136.404V48.5059H137.936V44.1855H139.166ZM136.732 45.416V46.4824H135.789V51.9512C136.206 51.9238 136.609 51.876 136.979 51.8281L137.074 52.7715C135.133 53.1543 132.59 53.209 131.004 53.209L130.854 52.1152L132.057 52.1016V46.4824H131.113V45.416H136.732ZM133.232 52.0879C133.677 52.0742 134.135 52.0605 134.586 52.0332V46.4824H133.232V52.0879ZM153.234 43.9121V56.1895H151.936V43.9121H153.234ZM146.686 44.8281C148.504 44.8281 149.844 46.4961 149.844 49.1211C149.844 51.7598 148.504 53.4277 146.686 53.4277C144.84 53.4277 143.514 51.7598 143.514 49.1211C143.514 46.4961 144.84 44.8281 146.686 44.8281ZM146.686 45.9902C145.551 45.9902 144.771 47.1934 144.771 49.1211C144.771 51.0625 145.551 52.2656 146.686 52.2656C147.807 52.2656 148.586 51.0625 148.586 49.1211C148.586 47.1934 147.807 45.9902 146.686 45.9902ZM159.701 47.5215C159.701 49.5723 161.041 51.6914 162.928 52.498L162.217 53.5098C160.774 52.874 159.626 51.5273 159.059 49.8867C158.491 51.6367 157.336 53.127 155.914 53.8242L155.162 52.7988C157.008 51.9375 158.375 49.627 158.389 47.5215V46.2227H155.586V45.1426H162.49V46.2227H159.701V47.5215ZM165.334 43.9121V56.1621H164.035V43.9121H165.334ZM180.852 43.9121V56.1895H179.553V43.9121H180.852ZM174.303 44.8281C176.121 44.8281 177.461 46.4961 177.461 49.1211C177.461 51.7598 176.121 53.4277 174.303 53.4277C172.457 53.4277 171.131 51.7598 171.131 49.1211C171.131 46.4961 172.457 44.8281 174.303 44.8281ZM174.303 45.9902C173.168 45.9902 172.389 47.1934 172.389 49.1211C172.389 51.0625 173.168 52.2656 174.303 52.2656C175.424 52.2656 176.203 51.0625 176.203 49.1211C176.203 47.1934 175.424 45.9902 174.303 45.9902ZM193.293 43.9121V56.1621H192.049V49.8867H190.477V55.5332H189.26V44.1582H190.477V48.8203H192.049V43.9121H193.293ZM184.68 45.3613V51.8965C185.814 51.8896 187.052 51.8008 188.439 51.5273L188.576 52.6621C186.895 52.9629 185.486 53.0449 184.174 53.0449H183.381V45.3613H184.68ZM206.117 53.6055V54.6992H194.906V53.6055H199.842V51.459H196.273V47.5625H203.465V45.8398H196.246V44.7734H204.75V48.6016H197.559V50.3926H205.037V51.459H201.127V53.6055H206.117ZM216.002 44.0488C218.764 44.0488 220.377 44.8008 220.377 46.1543C220.377 47.4189 219.003 48.1572 216.617 48.2598V49.1211H221.594V50.1602H210.424V49.1211H215.346V48.2598C212.987 48.1436 211.627 47.4121 211.627 46.1543C211.627 44.8008 213.24 44.0488 216.002 44.0488ZM216.002 45.0195C214.047 45.0332 212.967 45.4297 212.98 46.1543C212.967 46.9199 214.047 47.3027 216.002 47.3027C217.957 47.3027 219.037 46.9199 219.037 46.1543C219.037 45.4297 217.957 45.0332 216.002 45.0195ZM220.186 51.0762V53.9473H213.049V55.041H220.527V56.0391H211.777V53.0176H218.9V52.0605H211.764V51.0762H220.186ZM232.723 43.9121V56.1895H231.438V51.0625H229.045V49.9824H231.438V47.7129H229.113V46.6465H231.438V43.9121H232.723ZM228.375 44.9922V49.4629H224.273V52.2793C226.01 52.2725 227.459 52.1904 229.209 51.9375L229.318 53.0039C227.404 53.3047 225.846 53.3594 223.904 53.3594H222.975V48.4375H227.104V46.0449H222.947V44.9922H228.375ZM245.793 50.8164V51.8691H240.816V56.1484H239.545V51.8691H234.623V50.8164H245.793ZM244.74 44.6367V45.6758H240.953C240.974 47.1934 242.86 48.5469 245.178 48.8613L244.699 49.8867C242.689 49.5723 240.953 48.5811 240.215 47.1797C239.456 48.5811 237.727 49.5723 235.744 49.8867L235.252 48.8613C237.542 48.5469 239.429 47.1934 239.477 45.6758H235.662V44.6367H244.74ZM250.455 47.2617C250.455 49.2168 251.275 51.3086 252.916 52.3066L252.191 53.3047C251.043 52.6143 250.264 51.3906 249.854 49.9688C249.396 51.5273 248.555 52.8535 247.365 53.5781L246.559 52.6074C248.295 51.5684 249.197 49.4082 249.197 47.3164V45.0332H250.455V47.2617ZM257.264 43.9121V56.1621H256.02V43.9121H257.264ZM254.721 44.1445V55.5605H253.49V49.2988H251.59V48.2188H253.49V44.1445H254.721ZM270.033 53.5508V54.6309H258.822V53.5508H261.502V50.3516C260.497 49.7979 259.889 48.916 259.889 47.8223C259.889 45.8945 261.775 44.623 264.4 44.623C267.039 44.623 268.926 45.8945 268.926 47.8223C268.926 48.9023 268.338 49.7705 267.354 50.3242V53.5508H270.033ZM264.4 45.6621C262.473 45.6621 261.146 46.4961 261.146 47.8223C261.146 49.1348 262.473 49.9961 264.4 49.9961C266.314 49.9961 267.668 49.1348 267.668 47.8223C267.668 46.4961 266.314 45.6621 264.4 45.6621ZM262.787 53.5508H266.041V50.8164C265.542 50.9463 264.988 51.0078 264.4 51.0078C263.826 51.0078 263.279 50.9463 262.787 50.8301V53.5508ZM272.316 55.0957C271.783 55.0957 271.332 54.6582 271.346 54.125C271.332 53.5918 271.783 53.1543 272.316 53.1543C272.836 53.1543 273.287 53.5918 273.287 54.125C273.287 54.6582 272.836 55.0957 272.316 55.0957Z" fill="#868686"/>
<defs>
<linearGradient id="paint0_linear_28_238" x1="0" y1="18" x2="315" y2="18" gradientUnits="userSpaceOnUse">
<stop stop-color="#B3D8FF"/>
<stop offset="1" stop-color="#A73CFE"/>
</linearGradient>
</defs>
</svg>
