<svg width="428" height="214" viewBox="0 0 428 214" fill="none" xmlns="http://www.w3.org/2000/svg">
<g filter="url(#filter0_d_28_237)">
<path d="M16 128C16 116.954 24.9543 108 36 108H392C403.046 108 412 116.954 412 128V180H16V128Z" fill="white" fill-opacity="0.85" shape-rendering="crispEdges"/>
<circle cx="215" cy="108" r="35" fill="#007BFF" stroke="white" stroke-width="6"/>
<path d="M227 109.996H217V119.996C217 120.526 216.789 121.035 216.414 121.41C216.039 121.785 215.53 121.996 215 121.996C214.47 121.996 213.961 121.785 213.586 121.41C213.211 121.035 213 120.526 213 119.996V109.996H203C202.47 109.996 201.961 109.785 201.586 109.41C201.211 109.035 201 108.526 201 107.996C201 107.466 201.211 106.957 201.586 106.582C201.961 106.207 202.47 105.996 203 105.996H213V95.996C213 95.4655 213.211 94.9568 213.586 94.5818C213.961 94.2067 214.47 93.996 215 93.996C215.53 93.996 216.039 94.2067 216.414 94.5818C216.789 94.9568 217 95.4655 217 95.996V105.996H227C227.53 105.996 228.039 106.207 228.414 106.582C228.789 106.957 229 107.466 229 107.996C229 108.526 228.789 109.035 228.414 109.41C228.039 109.785 227.53 109.996 227 109.996Z" fill="white"/>
<path d="M123.854 129H117.083V141H123.854V129Z" stroke="black" stroke-width="2" stroke-linecap="round" stroke-linejoin="round"/>
<path d="M130.625 123H123.854V141H130.625V123Z" stroke="black" stroke-width="2" stroke-linejoin="round"/>
<path d="M137.396 133H130.625V141H137.396V133Z" stroke="black" stroke-width="2" stroke-linecap="round" stroke-linejoin="round"/>
<path d="M126.379 149.871V157.432H124.93V154.205H123.645V157.021H122.223V150.104H123.645V152.975H124.93V149.871H126.379ZM121.02 150.732V154.273H117.807V155.572C119.242 155.559 120.336 155.497 121.594 155.258L121.73 156.475C120.24 156.748 118.982 156.789 117.178 156.789H116.33V153.152H119.557V151.936H116.316V150.732H121.02ZM122.209 157.596C124.793 157.609 126.434 158.457 126.447 159.893C126.434 161.328 124.793 162.203 122.209 162.203C119.598 162.203 117.971 161.328 117.971 159.893C117.971 158.457 119.598 157.609 122.209 157.596ZM122.209 158.771C120.5 158.771 119.488 159.168 119.488 159.893C119.488 160.645 120.5 161.027 122.209 161.027C123.904 161.027 124.916 160.645 124.916 159.893C124.916 159.168 123.904 158.771 122.209 158.771ZM134.555 150.637C134.541 153.973 132.846 156.242 128.744 157.432L128.184 156.215C130.077 155.695 131.308 154.957 132.039 154.041L128.361 154.314L128.129 153.111L132.668 152.934C132.798 152.599 132.88 152.236 132.928 151.854H128.758V150.637H134.555ZM138.205 149.871V157.199H136.674V149.871H138.205ZM134.049 157.377C136.619 157.377 138.246 158.266 138.246 159.797C138.246 161.328 136.619 162.189 134.049 162.189C131.424 162.189 129.797 161.328 129.797 159.797C129.797 158.266 131.424 157.377 134.049 157.377ZM134.049 158.58C132.285 158.58 131.328 159.004 131.328 159.797C131.328 160.576 132.285 161.014 134.049 161.014C135.744 161.014 136.729 160.576 136.729 159.797C136.729 159.004 135.744 158.58 134.049 158.58Z" fill="black"/>
<path d="M306.5 137H304.5V130H306.5V137ZM310.5 137H308.5V127H310.5V137ZM314.5 137H312.5V133H314.5V137ZM316.5 139H302.5V125H316.5V139.1M316.5 123H302.5C301.4 123 300.5 123.9 300.5 125V139C300.5 140.1 301.4 141 302.5 141H316.5C317.6 141 318.5 140.1 318.5 139V125C318.5 123.9 317.6 123 316.5 123Z" fill="black"/>
<path d="M308.133 149.857V162.217H306.602V149.857H308.133ZM304.441 151.17C304.441 154.848 303.02 157.979 298.686 160.029L297.893 158.812C301.126 157.274 302.63 155.183 302.896 152.373H298.521V151.17H304.441ZM321.189 156.543V157.773H309.896V156.543H314.791V155.518H311.332V152.236H318.277V151.32H311.291V150.131H319.795V153.344H312.836V154.328H320.041V155.518H316.295V156.543H321.189ZM319.863 158.553V162.135H318.332V159.756H311.154V158.553H319.863Z" fill="black"/>
</g>
<defs>
<filter id="filter0_d_28_237" x="-48" y="0" width="524" height="244" filterUnits="userSpaceOnUse" color-interpolation-filters="sRGB">
<feFlood flood-opacity="0" result="BackgroundImageFix"/>
<feColorMatrix in="SourceAlpha" type="matrix" values="0 0 0 0 0 0 0 0 0 0 0 0 0 0 0 0 0 0 127 0" result="hardAlpha"/>
<feOffset/>
<feGaussianBlur stdDeviation="32"/>
<feComposite in2="hardAlpha" operator="out"/>
<feColorMatrix type="matrix" values="0 0 0 0 0.209948 0 0 0 0 0.229709 0 0 0 0 0.269231 0 0 0 0.08 0"/>
<feBlend mode="normal" in2="BackgroundImageFix" result="effect1_dropShadow_28_237"/>
<feBlend mode="normal" in="SourceGraphic" in2="effect1_dropShadow_28_237" result="shape"/>
</filter>
</defs>
</svg>
