<svg width="220" height="27" viewBox="0 0 220 27" fill="none" xmlns="http://www.w3.org/2000/svg">
<path d="M22.2832 0.123047V26.6074H19.1484V13.2188H16.2188V25.2598H13.1719V0.621094H16.2188V10.5527H19.1484V0.123047H22.2832ZM3.97266 3.16992V17.1445C6.25781 17.1006 8.7627 16.9102 11.5312 16.3535L11.8535 19.1953C8.2793 19.8398 5.26172 20.0156 2.44922 20.0156H0.691406V3.16992H3.97266ZM56.7949 20.8066V23.5312H32.5957V20.8066H42.9961V15.5918H34.6758V13.0137H38.3965V5.10352H34.5879V2.4668H54.6855V5.10352H50.8184V13.0137H54.5977V15.5918H46.2188V20.8066H56.7949ZM41.6484 13.0137H47.5957V5.10352H41.6484V13.0137ZM80.0566 14.0098V16.5879H61.4824V2.20312H79.8223V4.83984H64.793V8.0332H79.207V10.582H64.793V14.0098H80.0566ZM82.7227 20.7188V23.3848H58.5234V20.7188H82.7227ZM106.365 0.796875V3.22852H102.732V7.27148H106.219V9.70312H98.1035V11.666H108.592V14.2148H84.4512V11.666H94.8516V9.70312H86.7656V7.27148H90.252V3.22852H86.6191V0.796875H106.365ZM105.574 15.8555V22.0664H90.5156V23.9414H106.307V26.373H87.3223V19.8398H102.381V18.1992H87.293V15.8555H105.574ZM93.5039 7.27148H99.4512V3.22852H93.5039V7.27148ZM132.439 0.123047V26.6367H129.217V0.123047H132.439ZM124.295 2.4375V12.3691H115.184V17.7012C119.358 17.6719 122.962 17.4668 127.078 16.7637L127.371 19.4297C122.859 20.2207 118.904 20.3672 114.158 20.3672H111.844V9.79102H120.984V5.07422H111.814V2.4375H124.295ZM148.348 1.61719C154.031 1.61719 158.221 4.45898 158.221 8.76562C158.221 12.7354 154.808 15.3867 149.959 15.8555V20.7188H160.506V23.3848H136.307V20.7188H146.736V15.8555C141.917 15.3867 138.504 12.7354 138.533 8.76562C138.504 4.45898 142.693 1.61719 148.348 1.61719ZM148.348 4.25391C144.48 4.22461 141.697 5.98242 141.727 8.76562C141.697 11.6367 144.48 13.3359 148.348 13.3359C152.273 13.3359 155.027 11.6367 155.027 8.76562C155.027 5.98242 152.273 4.22461 148.348 4.25391ZM184.148 1.96875V4.60547H181.805V12.1055C182.771 12.0469 183.724 11.959 184.646 11.8418V9.46875H188.279V7.18359H184.646V4.57617H188.279V0.123047H191.531V16.3535H188.279V12.0762H184.734L184.852 14.2441C179.812 15.0645 173.953 15.1816 169.734 15.1816L169.383 12.4863L172.371 12.457V4.60547H170.057V1.96875H184.148ZM182.566 16.8223C188.221 16.8223 191.619 18.5801 191.619 21.7148C191.619 24.7617 188.221 26.5781 182.566 26.5781C176.941 26.5781 173.543 24.7617 173.572 21.7148C173.543 18.5801 176.941 16.8223 182.566 16.8223ZM182.566 19.3125C178.875 19.3125 176.795 20.1328 176.795 21.7148C176.795 23.2383 178.875 24.0586 182.566 24.0586C186.287 24.0586 188.367 23.2383 188.367 21.7148C188.367 20.1328 186.287 19.3125 182.566 19.3125ZM175.535 12.4277C176.561 12.3984 177.615 12.3545 178.67 12.3105V4.60547H175.535V12.4277ZM216.023 0.123047V10.4648H219.949V13.1895H216.023V26.5488H212.771V0.123047H216.023ZM209.021 2.87695C209.021 10.6699 205.799 17.4961 196.98 21.832L195.135 19.3125C201.58 16.1045 205.066 11.5928 205.74 5.57227H196.57V2.87695H209.021Z" fill="url(#paint0_linear_31_213)"/>
<defs>
<linearGradient id="paint0_linear_31_213" x1="-48" y1="13" x2="267" y2="13" gradientUnits="userSpaceOnUse">
<stop stop-color="#B3D8FF"/>
<stop offset="1" stop-color="#A73CFE"/>
</linearGradient>
</defs>
</svg>
