<svg width="276" height="27" viewBox="0 0 276 27" fill="none" xmlns="http://www.w3.org/2000/svg">
<path d="M0.537109 24V2.78906H8.50586C13.3691 2.78906 15.9766 5.74805 15.9766 9.82031C15.9766 13.8926 13.3398 16.8223 8.44727 16.8223H4.3457V24H0.537109ZM4.3457 13.6875H7.91992C10.791 13.6875 12.0801 12.0762 12.0801 9.82031C12.0801 7.53516 10.791 5.98242 7.91992 5.98242H4.3457V13.6875ZM26.2598 24H19.0527V2.78906H26.377C32.7051 2.78906 36.543 6.77344 36.543 13.3652C36.543 19.9863 32.7051 24 26.2598 24ZM22.8613 20.6895H26.0547C30.4785 20.6895 32.7344 18.2578 32.7344 13.3652C32.7344 8.50195 30.4785 6.09961 26.1719 6.09961H22.8613V20.6895ZM39.9121 24V2.78906H53.5059V5.98242H43.7207V11.7832H52.5684V14.9766H43.7207V24H39.9121ZM79.8145 12.1348V14.5957H55.6152V12.1348H79.8145ZM76.8848 16.1777V22.2129H61.709V24.0586H77.6758V26.3145H58.457V20.1035H73.6621V18.4629H58.4277V16.1777H76.8848ZM76.8262 0.708984V6.68555H61.9141V8.41406H77.2949V10.6406H58.6914V4.57617H73.5742V2.96484H58.6035V0.708984H76.8262ZM96.0449 1.29492C99.4727 1.26562 102.168 3.24316 102.842 6.1582H107.617V0.123047H110.869V14.332H107.617V8.79492H102.871C102.212 11.7686 99.4873 13.7754 96.0449 13.7754C91.9727 13.7754 89.043 11.168 89.043 7.50586C89.043 3.90234 91.9727 1.26562 96.0449 1.29492ZM96.0449 4.01953C93.7598 4.01953 92.1484 5.36719 92.1484 7.50586C92.1484 9.61523 93.7598 11.0215 96.0449 11.0215C98.2715 11.0215 99.8535 9.61523 99.8828 7.50586C99.8535 5.36719 98.2715 4.01953 96.0449 4.01953ZM96.6309 15.5625V18.375H107.617V15.5625H110.869V26.2852H93.4082V15.5625H96.6309ZM96.6309 23.6484H107.617V20.8945H96.6309V23.6484ZM138.818 20.8359V23.5312H114.619V20.8359H125.049V16.5293H117.49V7.85742H132.725V4.57617H117.432V1.93945H135.947V10.4355H120.742V13.8633H136.562V16.5293H128.271V20.8359H138.818ZM162.051 12.5449V15.1523H143.477V2.4375H161.846V5.07422H146.699V12.5449H162.051ZM164.746 20.543V23.2383H140.547V20.543H164.746ZM186.514 4.3418V6.94922H173.535V4.3418H178.457V0.884766H181.68V4.3418H186.514ZM180.068 8.35547C183.438 8.35547 185.84 10.9043 185.84 14.5078C185.84 18.1699 183.438 20.748 180.068 20.748C176.729 20.748 174.268 18.1699 174.297 14.5078C174.268 10.9043 176.729 8.35547 180.068 8.35547ZM180.068 11.0508C178.34 11.0508 177.139 12.4277 177.168 14.5078C177.139 16.6465 178.34 17.9941 180.068 17.9648C181.768 17.9941 182.969 16.6465 182.969 14.5078C182.969 12.4277 181.768 11.0508 180.068 11.0508ZM196.357 0.123047V26.6074H193.252V13.6582H190.674V25.4062H187.627V0.679688H190.674V11.0215H193.252V0.123047H196.357ZM223.662 14.8887V17.5254H213.145V26.5781H209.922V17.5254H199.521V14.8887H223.662ZM221.436 1.61719V4.19531H213.496C213.687 7.0957 217.173 9.87891 222.402 10.5527L221.23 13.1016C216.719 12.4717 213.203 10.4062 211.592 7.53516C209.98 10.4062 206.465 12.4717 202.012 13.1016L200.781 10.5527C205.981 9.87891 209.468 7.0957 209.717 4.19531H201.748V1.61719H221.436ZM233.711 7.06641C233.711 11.3438 235.205 15.7969 238.779 18.0527L236.992 20.543C234.604 19.1074 233.052 16.6318 232.188 13.7168C231.221 16.9248 229.521 19.6348 227.031 21.1582L225.01 18.7266C228.848 16.3828 230.576 11.7246 230.576 7.21289V2.4668H233.711V7.06641ZM248.301 0.123047V26.6074H245.166V0.123047H248.301ZM242.793 0.591797V25.3184H239.717V11.9297H235.938V9.23438H239.717V0.591797H242.793ZM275.576 20.7188V23.3848H251.377V20.7188H256.973V14.0098C254.863 12.8086 253.589 10.9189 253.604 8.56055C253.574 4.3418 257.734 1.55859 263.418 1.55859C269.131 1.55859 273.291 4.3418 273.291 8.56055C273.291 10.875 272.061 12.7354 270.01 13.9512V20.7188H275.576ZM263.418 4.13672C259.463 4.13672 256.768 5.80664 256.797 8.56055C256.768 11.2852 259.463 12.9844 263.418 12.9844C267.373 12.9844 270.098 11.2852 270.098 8.56055C270.098 5.80664 267.373 4.13672 263.418 4.13672ZM260.195 20.7188H266.699V15.1816C265.688 15.416 264.59 15.5332 263.418 15.5332C262.275 15.5332 261.191 15.416 260.195 15.2109V20.7188Z" fill="url(#paint0_linear_28_239)"/>
<defs>
<linearGradient id="paint0_linear_28_239" x1="-20" y1="13" x2="295" y2="13" gradientUnits="userSpaceOnUse">
<stop stop-color="#B3D8FF"/>
<stop offset="1" stop-color="#A73CFE"/>
</linearGradient>
</defs>
</svg>
