<svg width="25" height="42" viewBox="0 0 25 42" fill="none" xmlns="http://www.w3.org/2000/svg">
<path d="M9.5 14H7.5V7H9.5V14ZM13.5 14H11.5V4H13.5V14ZM17.5 14H15.5V10H17.5V14ZM19.5 16H5.5V2H19.5V16.1M19.5 0H5.5C4.4 0 3.5 0.9 3.5 2V16C3.5 17.1 4.4 18 5.5 18H19.5C20.6 18 21.5 17.1 21.5 16V2C21.5 0.9 20.6 0 19.5 0Z" fill="black"/>
<path d="M11.1328 26.8574V39.2168H9.60156V26.8574H11.1328ZM7.44141 28.1699C7.44141 31.8477 6.01953 34.9785 1.68555 37.0293L0.892578 35.8125C4.12598 34.2744 5.62988 32.1826 5.89648 29.373H1.52148V28.1699H7.44141ZM24.1895 33.543V34.7734H12.8965V33.543H17.791V32.5176H14.332V29.2363H21.2773V28.3203H14.291V27.1309H22.7949V30.3438H15.8359V31.3281H23.041V32.5176H19.2949V33.543H24.1895ZM22.8633 35.5527V39.1348H21.332V36.7559H14.1543V35.5527H22.8633Z" fill="black"/>
</svg>
