<svg width="24" height="24" viewBox="0 0 24 24" fill="none" xmlns="http://www.w3.org/2000/svg">
<path fill-rule="evenodd" clip-rule="evenodd" d="M0 4.625C0 4.32663 0.118526 4.04048 0.329505 3.8295C0.540483 3.61853 0.826631 3.5 1.125 3.5H22.875C23.1734 3.5 23.4595 3.61853 23.6705 3.8295C23.8815 4.04048 24 4.32663 24 4.625C24 4.92337 23.8815 5.20952 23.6705 5.4205C23.4595 5.63147 23.1734 5.75 22.875 5.75H1.125C0.826631 5.75 0.540483 5.63147 0.329505 5.4205C0.118526 5.20952 0 4.92337 0 4.625ZM0 11C0 10.7016 0.118526 10.4155 0.329505 10.2045C0.540483 9.99353 0.826631 9.875 1.125 9.875H22.875C23.1734 9.875 23.4595 9.99353 23.6705 10.2045C23.8815 10.4155 24 10.7016 24 11C24 11.2984 23.8815 11.5845 23.6705 11.7955C23.4595 12.0065 23.1734 12.125 22.875 12.125H1.125C0.826631 12.125 0.540483 12.0065 0.329505 11.7955C0.118526 11.5845 0 11.2984 0 11ZM1.125 16.25C0.826631 16.25 0.540483 16.3685 0.329505 16.5795C0.118526 16.7905 0 17.0766 0 17.375C0 17.6734 0.118526 17.9595 0.329505 18.1705C0.540483 18.3815 0.826631 18.5 1.125 18.5H22.875C23.1734 18.5 23.4595 18.3815 23.6705 18.1705C23.8815 17.9595 24 17.6734 24 17.375C24 17.0766 23.8815 16.7905 23.6705 16.5795C23.4595 16.3685 23.1734 16.25 22.875 16.25H1.125Z" fill="black"/>
</svg>
